<svg xmlns="http://www.w3.org/2000/svg" xmlns:xlink="http://www.w3.org/1999/xlink" width="324" height="309" viewBox="0 0 324 309">
  <defs>
    <linearGradient id="linear-gradient" x1="0.5" x2="0.5" y2="1" gradientUnits="objectBoundingBox">
      <stop offset="0" stop-color="#159957"/>
      <stop offset="1" stop-color="#155799"/>
    </linearGradient>
    <filter id="Union_17" x="-7.627" y="-1.31" width="339.328" height="320.053" filterUnits="userSpaceOnUse">
      <feOffset dy="3" input="SourceAlpha"/>
      <feGaussianBlur stdDeviation="3" result="blur"/>
      <feFlood flood-opacity="0.161"/>
      <feComposite operator="in" in2="blur"/>
      <feComposite in="SourceGraphic"/>
    </filter>
    <clipPath id="clip-BuddyBotSlim">
      <rect width="324" height="309"/>
    </clipPath>
  </defs>
  <g id="BuddyBotSlim" clip-path="url(#clip-BuddyBotSlim)">
    <g transform="matrix(1, 0, 0, 1, 0, 0)" filter="url(#Union_17)">
      <path id="Union_17-2" data-name="Union 17" d="M132.623,302.053A121.223,121.223,0,0,1,17.037,217.238V219.5a22.668,22.668,0,0,1-6.826-5.542,36.423,36.423,0,0,1-5.395-8.627A51.829,51.829,0,0,1,1.274,194.3a64.321,64.321,0,0,1,0-25.481A51.8,51.8,0,0,1,4.817,157.8a36.428,36.428,0,0,1,5.395-8.626,22.641,22.641,0,0,1,6.826-5.542v1A121,121,0,0,1,132.623,59.81h15.319V35.361a20.011,20.011,0,1,1,26.245-.547v25h14.675A121.227,121.227,0,0,1,304.29,144.125v-1.439a22.677,22.677,0,0,1,6.827,5.542,36.41,36.41,0,0,1,5.394,8.626,51.827,51.827,0,0,1,3.543,11.026,64.325,64.325,0,0,1,0,25.482,51.81,51.81,0,0,1-3.543,11.026,36.423,36.423,0,0,1-5.394,8.627,22.693,22.693,0,0,1-6.827,5.542v-.821a121,121,0,0,1-115.428,84.316ZM36.868,181.763A92.647,92.647,0,0,0,129.41,274.3h62.878a92.542,92.542,0,1,0,0-185.083H129.41A92.647,92.647,0,0,0,36.868,181.763Zm106.6,48.962a60.359,60.359,0,0,1-14.906-6.03,49.236,49.236,0,0,1-11.663-9.18,38.3,38.3,0,0,1-7.492-11.617H211.973a38.291,38.291,0,0,1-7.492,11.617,49.249,49.249,0,0,1-11.662,9.18,60.373,60.373,0,0,1-14.906,6.03,69.463,69.463,0,0,1-34.446,0Zm31.287-71.934c0-14.266,10.549-25.831,23.563-25.831s23.563,11.565,23.563,25.831-10.55,25.832-23.563,25.832S174.754,173.057,174.754,158.791Zm-74.716,0c0-14.266,10.55-25.831,23.563-25.831s23.563,11.565,23.563,25.831-10.55,25.832-23.563,25.832S100.038,173.057,100.038,158.791Z" transform="translate(1.37 4.69)" fill="url(#linear-gradient)"/>
    </g>
  </g>
</svg>
