<svg xmlns="http://www.w3.org/2000/svg" xmlns:xlink="http://www.w3.org/1999/xlink" width="389" height="333" viewBox="0 0 389 333">
  <defs>
    <linearGradient id="linear-gradient" x1="0.5" x2="0.5" y2="1" gradientUnits="objectBoundingBox">
      <stop offset="0" stop-color="#159957"/>
      <stop offset="1" stop-color="#155799"/>
    </linearGradient>
    <clipPath id="clip-BuddyBot_-_Slim">
      <rect width="389" height="333"/>
    </clipPath>
  </defs>
  <g id="BuddyBot_-_Slim" data-name="BuddyBot - Slim" clip-path="url(#clip-BuddyBot_-_Slim)">
    <rect width="389" height="333" fill="#fff"/>
    <path id="Union_16" data-name="Union 16" d="M132.623,305.052A121.224,121.224,0,0,1,17.037,220.239V222.5a22.668,22.668,0,0,1-6.826-5.542,36.423,36.423,0,0,1-5.395-8.627A51.829,51.829,0,0,1,1.274,197.3a64.321,64.321,0,0,1,0-25.481A51.8,51.8,0,0,1,4.817,160.8a36.428,36.428,0,0,1,5.395-8.627,22.641,22.641,0,0,1,6.826-5.542v1A121,121,0,0,1,132.623,62.809H149.6V33.3a20.1,20.1,0,0,1-5.848-14.456A20.288,20.288,0,0,1,148.529,5.52a14.816,14.816,0,0,1,23.073,0,20.288,20.288,0,0,1,4.779,13.325,21.17,21.17,0,0,1-1.469,7.826,18.866,18.866,0,0,1-3.974,6.225V62.809h17.924A121.226,121.226,0,0,1,304.29,147.126v-1.44a22.677,22.677,0,0,1,6.827,5.542,36.41,36.41,0,0,1,5.394,8.626,51.843,51.843,0,0,1,3.543,11.026,64.325,64.325,0,0,1,0,25.482,51.81,51.81,0,0,1-3.543,11.026,36.423,36.423,0,0,1-5.394,8.627,22.693,22.693,0,0,1-6.827,5.542v-.821a121,121,0,0,1-115.428,84.316ZM36.868,184.763A92.647,92.647,0,0,0,129.41,277.3h62.878a92.542,92.542,0,1,0,0-185.083H129.41A92.647,92.647,0,0,0,36.868,184.763Zm106.6,48.963a60.394,60.394,0,0,1-14.906-6.03,49.282,49.282,0,0,1-11.663-9.18,38.311,38.311,0,0,1-7.492-11.618H211.973a38.3,38.3,0,0,1-7.492,11.618,49.3,49.3,0,0,1-11.662,9.18,60.409,60.409,0,0,1-14.906,6.03,69.491,69.491,0,0,1-34.446,0Zm31.287-71.934c0-14.267,10.549-25.832,23.563-25.832s23.563,11.565,23.563,25.832-10.55,25.832-23.563,25.832S174.754,176.057,174.754,161.791Zm-74.716,0c0-14.267,10.55-25.832,23.563-25.832s23.563,11.565,23.563,25.832-10.55,25.832-23.563,25.832S100.038,176.057,100.038,161.791Z" transform="translate(41.373 13.69)" fill="url(#linear-gradient)"/>
  </g>
</svg>
