<svg xmlns="http://www.w3.org/2000/svg" xmlns:xlink="http://www.w3.org/1999/xlink" width="337" height="309" viewBox="0 0 337 309">
  <defs>
    <linearGradient id="linear-gradient" x1="0.5" x2="0.5" y2="1" gradientUnits="objectBoundingBox">
      <stop offset="0" stop-color="#159957"/>
      <stop offset="1" stop-color="#155799"/>
    </linearGradient>
    <filter id="Union_29" x="26.373" y="-5.987" width="283.359" height="309.73" filterUnits="userSpaceOnUse">
      <feOffset dy="3" input="SourceAlpha"/>
      <feGaussianBlur stdDeviation="3" result="blur"/>
      <feFlood flood-opacity="0.161"/>
      <feComposite operator="in" in2="blur"/>
      <feComposite in="SourceGraphic"/>
    </filter>
    <clipPath id="clip-BuddyBot_Sqaure_Face">
      <rect width="337" height="309"/>
    </clipPath>
  </defs>
  <g id="BuddyBot_Sqaure_Face" data-name="BuddyBot Sqaure Face" clip-path="url(#clip-BuddyBot_Sqaure_Face)">
    <g id="Group_1" data-name="Group 1" transform="translate(-527 -336)">
      <g transform="matrix(1, 0, 0, 1, 527, 336)" filter="url(#Union_29)">
        <path id="Union_29-2" data-name="Union 29" d="M-359.789,267.729a39.761,39.761,0,0,1-15.57-3.143,39.876,39.876,0,0,1-12.714-8.573,39.874,39.874,0,0,1-8.572-12.714,39.743,39.743,0,0,1-3.144-15.57V184.889a20.157,20.157,0,0,1-5.033-5.254,38.727,38.727,0,0,1-4.321-8.627,61.5,61.5,0,0,1-2.838-11.026,78.319,78.319,0,0,1-1.02-12.74,78.327,78.327,0,0,1,1.02-12.74,61.569,61.569,0,0,1,2.838-11.027,38.738,38.738,0,0,1,4.321-8.626,20.178,20.178,0,0,1,5.033-5.255V65.486a39.738,39.738,0,0,1,3.144-15.569A39.854,39.854,0,0,1-388.074,37.2a39.861,39.861,0,0,1,12.714-8.573,39.746,39.746,0,0,1,15.57-3.144h69.279V5.814a17.2,17.2,0,0,1-5.761-12.952,17.213,17.213,0,0,1,4.692-11.923A15.521,15.521,0,0,1-280.253-24a15.523,15.523,0,0,1,11.327,4.939,17.209,17.209,0,0,1,4.692,11.923,17.481,17.481,0,0,1-1.418,6.945,16.8,16.8,0,0,1-3.839,5.545V25.486h68.764a39.743,39.743,0,0,1,15.57,3.144A39.862,39.862,0,0,1-172.443,37.2a39.856,39.856,0,0,1,8.572,12.714,39.753,39.753,0,0,1,3.143,15.569v43.252a20.338,20.338,0,0,1,4.907,5.167,38.7,38.7,0,0,1,4.321,8.627,61.578,61.578,0,0,1,2.838,11.026,78.306,78.306,0,0,1,1.021,12.74,78.3,78.3,0,0,1-1.021,12.741,61.5,61.5,0,0,1-2.838,11.026,38.688,38.688,0,0,1-4.321,8.627,20.338,20.338,0,0,1-4.907,5.167v43.87a39.758,39.758,0,0,1-3.143,15.57,39.891,39.891,0,0,1-8.572,12.714,39.877,39.877,0,0,1-12.714,8.573,39.761,39.761,0,0,1-15.57,3.143ZM-373.373,77.987v134a26.029,26.029,0,0,0,26,26h138a26.029,26.029,0,0,0,26-26v-134a26.029,26.029,0,0,0-26-26h-138A26.03,26.03,0,0,0-373.373,77.987Zm78.106,130.358a52.515,52.515,0,0,1-14.585-7.59A52.443,52.443,0,0,1-321.263,189.2a51.437,51.437,0,0,1-7.33-14.624h100.354A51.451,51.451,0,0,1-235.57,189.2a52.438,52.438,0,0,1-11.41,11.556,52.54,52.54,0,0,1-14.584,7.59,52.991,52.991,0,0,1-16.852,2.73A52.991,52.991,0,0,1-295.268,208.345Zm34.895-86.858a28.5,28.5,0,0,1,28.5-28.5,28.5,28.5,0,0,1,28.5,28.5,28.5,28.5,0,0,1-28.5,28.5A28.5,28.5,0,0,1-260.373,121.487Zm-92,0a28.5,28.5,0,0,1,28.5-28.5,28.5,28.5,0,0,1,28.5,28.5,28.5,28.5,0,0,1-28.5,28.5A28.5,28.5,0,0,1-352.372,121.487Z" transform="translate(448.37 24.01)" fill="url(#linear-gradient)"/>
      </g>
    </g>
  </g>
</svg>
