<svg xmlns="http://www.w3.org/2000/svg" xmlns:xlink="http://www.w3.org/1999/xlink" width="389" height="333" viewBox="0 0 389 333">
  <defs>
    <linearGradient id="linear-gradient" x1="0.5" x2="0.5" y2="1" gradientUnits="objectBoundingBox">
      <stop offset="0" stop-color="#159957"/>
      <stop offset="1" stop-color="#155799"/>
    </linearGradient>
    <filter id="Union_14" x="0.373" y="7.69" width="388.224" height="323.052" filterUnits="userSpaceOnUse">
      <feOffset dy="3" input="SourceAlpha"/>
      <feGaussianBlur stdDeviation="3" result="blur"/>
      <feFlood flood-opacity="0.161"/>
      <feComposite operator="in" in2="blur"/>
      <feComposite in="SourceGraphic"/>
    </filter>
    <clipPath id="clip-BuddyBotWide">
      <rect width="389" height="333"/>
    </clipPath>
  </defs>
  <g id="BuddyBotWide" clip-path="url(#clip-BuddyBotWide)">
    <g transform="matrix(1, 0, 0, 1, 0, 0)" filter="url(#Union_14)">
      <path id="Union_14-2" data-name="Union 14" d="M134.373,305.052A121.242,121.242,0,0,1,19.5,222.443a25.851,25.851,0,0,1-7.738-5.485A36.12,36.12,0,0,1,5.55,208.33,47.114,47.114,0,0,1,1.468,197.3a56.023,56.023,0,0,1,0-25.481A47.1,47.1,0,0,1,5.55,160.8a36.086,36.086,0,0,1,6.214-8.627,26.1,26.1,0,0,1,7.249-5.259,121,121,0,0,1,115.359-84.1h37.99V33.3A18.876,18.876,0,0,1,171.131,5.52a18.8,18.8,0,0,1,32.09,13.325,18.817,18.817,0,0,1-6.27,14.051V62.809h39.083A121.235,121.235,0,0,1,351.063,145.9a26.014,26.014,0,0,1,7.4,5.328,36.085,36.085,0,0,1,6.215,8.626,47.064,47.064,0,0,1,4.082,11.026,56.027,56.027,0,0,1,0,25.482,47.035,47.035,0,0,1-4.082,11.026,36.119,36.119,0,0,1-6.215,8.627,26.151,26.151,0,0,1-7.157,5.214,121,121,0,0,1-115.269,83.823ZM42.478,184.763A92.647,92.647,0,0,0,135.02,277.3H235.631a92.542,92.542,0,0,0,0-185.083H135.02A92.647,92.647,0,0,0,42.478,184.763ZM168.9,232.726a56.174,56.174,0,0,1-14.225-6.03,47.431,47.431,0,0,1-11.128-9.18A38.552,38.552,0,0,1,136.4,205.9h97.873a38.57,38.57,0,0,1-7.15,11.618A47.431,47.431,0,0,1,216,226.7a56.167,56.167,0,0,1-14.224,6.03,63.375,63.375,0,0,1-32.87,0Zm32.442-72.934c0-14.267,12.154-25.832,27.148-25.832s27.148,11.565,27.148,25.832-12.154,25.831-27.148,25.831S201.346,174.057,201.346,159.791Zm-86.086,0c0-14.267,12.155-25.832,27.148-25.832s27.148,11.565,27.148,25.832-12.154,25.831-27.148,25.831S115.26,174.057,115.26,159.791Z" transform="translate(9.37 13.69)" fill="url(#linear-gradient)"/>
    </g>
  </g>
</svg>
