<svg xmlns="http://www.w3.org/2000/svg" xmlns:xlink="http://www.w3.org/1999/xlink" width="337" height="309" viewBox="0 0 337 309">
  <defs>
    <linearGradient id="linear-gradient" x1="0.5" x2="0.5" y2="1" gradientUnits="objectBoundingBox">
      <stop offset="0" stop-color="#159957"/>
      <stop offset="1" stop-color="#155799"/>
    </linearGradient>
    <filter id="Union_19" x="26.373" y="4.013" width="283.359" height="309.73" filterUnits="userSpaceOnUse">
      <feOffset dy="3" input="SourceAlpha"/>
      <feGaussianBlur stdDeviation="3" result="blur"/>
      <feFlood flood-opacity="0.161"/>
      <feComposite operator="in" in2="blur"/>
      <feComposite in="SourceGraphic"/>
    </filter>
    <clipPath id="clip-BuddyBot_Square_with_Circular_Face">
      <rect width="337" height="309"/>
    </clipPath>
  </defs>
  <g id="BuddyBot_Square_with_Circular_Face" data-name="BuddyBot Square with Circular Face" clip-path="url(#clip-BuddyBot_Square_with_Circular_Face)">
    <g transform="matrix(1, 0, 0, 1, 0, 0)" filter="url(#Union_19)">
      <path id="Union_19-2" data-name="Union 19" d="M-868.789,302.053a39.746,39.746,0,0,1-15.57-3.144,39.875,39.875,0,0,1-12.714-8.572,39.875,39.875,0,0,1-8.572-12.714,39.746,39.746,0,0,1-3.144-15.57V219.212a20.158,20.158,0,0,1-5.033-5.254,38.726,38.726,0,0,1-4.321-8.627A61.539,61.539,0,0,1-920.98,194.3a78.316,78.316,0,0,1-1.02-12.74,78.315,78.315,0,0,1,1.02-12.74,61.569,61.569,0,0,1,2.838-11.027,38.737,38.737,0,0,1,4.321-8.626,20.164,20.164,0,0,1,5.033-5.255V99.809a39.746,39.746,0,0,1,3.144-15.57,39.875,39.875,0,0,1,8.572-12.714,39.874,39.874,0,0,1,12.714-8.572,39.746,39.746,0,0,1,15.57-3.144h69.279V40.137a17.2,17.2,0,0,1-5.761-12.952,17.209,17.209,0,0,1,4.692-11.923,15.52,15.52,0,0,1,11.326-4.939,15.523,15.523,0,0,1,11.327,4.939,17.209,17.209,0,0,1,4.692,11.923,17.482,17.482,0,0,1-1.417,6.945,16.8,16.8,0,0,1-3.839,5.545V59.81h68.764a39.746,39.746,0,0,1,15.57,3.144,39.874,39.874,0,0,1,12.714,8.572,39.874,39.874,0,0,1,8.572,12.714,39.746,39.746,0,0,1,3.144,15.57v43.252a20.307,20.307,0,0,1,4.907,5.167,38.738,38.738,0,0,1,4.321,8.626,61.579,61.579,0,0,1,2.838,11.026,78.309,78.309,0,0,1,1.021,12.74,78.312,78.312,0,0,1-1.021,12.741,61.539,61.539,0,0,1-2.838,11.026,38.728,38.728,0,0,1-4.321,8.627,20.353,20.353,0,0,1-4.907,5.167v43.87a39.746,39.746,0,0,1-3.144,15.57,39.874,39.874,0,0,1-8.572,12.714,39.875,39.875,0,0,1-12.714,8.572,39.746,39.746,0,0,1-15.57,3.144Zm-19.683-120.29A92.647,92.647,0,0,0-795.93,274.3h13.515a92.647,92.647,0,0,0,92.542-92.542,92.647,92.647,0,0,0-92.542-92.542H-795.93A92.647,92.647,0,0,0-888.472,181.763Zm89.175,58.962a30.267,30.267,0,0,1-8.882-6.03,38.59,38.59,0,0,1-6.95-9.179,46.743,46.743,0,0,1-4.464-11.618h61.118a46.714,46.714,0,0,1-4.464,11.618,38.587,38.587,0,0,1-6.949,9.179,30.259,30.259,0,0,1-8.883,6.03,25.515,25.515,0,0,1-10.263,2.169A25.523,25.523,0,0,1-799.3,240.725Zm25.62-67.395a22.02,22.02,0,0,1,22.02-22.02,22.02,22.02,0,0,1,22.02,22.02,22.02,22.02,0,0,1-22.02,22.02A22.02,22.02,0,0,1-773.677,173.33Zm-75.7,0a22.02,22.02,0,0,1,22.02-22.02,22.02,22.02,0,0,1,22.02,22.02,22.02,22.02,0,0,1-22.02,22.02A22.02,22.02,0,0,1-849.372,173.33Z" transform="translate(957.37 -0.31)" fill="url(#linear-gradient)"/>
    </g>
  </g>
</svg>
