<svg xmlns="http://www.w3.org/2000/svg" xmlns:xlink="http://www.w3.org/1999/xlink" viewBox="0 0 389 333">
  <defs>
    <style>
      .cls-1 {
        clip-path: url(#clip-BuddyBot_Smile_1);
      }

      .cls-2 {
        fill: url(#linear-gradient);
      }

      .cls-3 {
        fill: none;
        stroke: #156b84;
        stroke-width: 16px;
      }

      .cls-4 {
        fill: #fff;
      }
    </style>
    <linearGradient id="linear-gradient" x1="0.5" x2="0.5" y2="1" gradientUnits="objectBoundingBox">
      <stop offset="0" stop-color="#159957"/>
      <stop offset="1" stop-color="#155799"/>
    </linearGradient>
    <clipPath id="clip-BuddyBot_Smile_1">
      <rect width="389" height="333"/>
    </clipPath>
  </defs>
  <g id="BuddyBot_Smile_1" data-name="BuddyBot Smile 1" class="cls-1">
    <rect class="cls-4" width="389" height="333"/>
    <g id="Group_1" data-name="Group 1" transform="translate(-766 -32)">
      <path id="Union_15" data-name="Union 15" class="cls-2" d="M134.373,305.052A121.242,121.242,0,0,1,19.5,222.443a25.851,25.851,0,0,1-7.738-5.485A36.12,36.12,0,0,1,5.55,208.33,47.114,47.114,0,0,1,1.468,197.3a56.023,56.023,0,0,1,0-25.481A47.1,47.1,0,0,1,5.55,160.8a36.086,36.086,0,0,1,6.214-8.627,26.1,26.1,0,0,1,7.249-5.259,121,121,0,0,1,115.359-84.1h37.99V33.3A18.876,18.876,0,0,1,171.131,5.52a18.8,18.8,0,0,1,32.09,13.325,18.817,18.817,0,0,1-6.27,14.051V62.809h39.083A121.235,121.235,0,0,1,351.063,145.9a26.014,26.014,0,0,1,7.4,5.328,36.085,36.085,0,0,1,6.215,8.626,47.064,47.064,0,0,1,4.082,11.026,56.027,56.027,0,0,1,0,25.482,47.035,47.035,0,0,1-4.082,11.026,36.119,36.119,0,0,1-6.215,8.627,26.151,26.151,0,0,1-7.157,5.214,121,121,0,0,1-115.269,83.823ZM42.478,184.763A92.647,92.647,0,0,0,135.02,277.3H235.631a92.542,92.542,0,0,0,0-185.083H135.02A92.647,92.647,0,0,0,42.478,184.763Zm158.868-22.972c0-14.267,12.154-25.832,27.148-25.832s27.148,11.565,27.148,25.832-12.154,25.832-27.148,25.832S201.346,176.057,201.346,161.791Zm-86.086,0c0-14.267,12.155-25.832,27.148-25.832s27.148,11.565,27.148,25.832-12.154,25.832-27.148,25.832S115.26,176.057,115.26,161.791Z" transform="translate(775.373 45.69)"/>
      <path id="Path_1" data-name="Path 1" class="cls-3" d="M1253.51,465.854s-8.251-44.3-62.441-36.05" transform="translate(2245.09 28.288) rotate(150)"/>
    </g>
  </g>
</svg>
