<svg xmlns="http://www.w3.org/2000/svg" xmlns:xlink="http://www.w3.org/1999/xlink" width="977" height="701" viewBox="0 0 977 701">
  <defs>
    <filter id="Union_28" x="644.373" y="355.013" width="283.359" height="309.73" filterUnits="userSpaceOnUse">
      <feOffset dy="3" input="SourceAlpha"/>
      <feGaussianBlur stdDeviation="3" result="blur"/>
      <feFlood flood-opacity="0.161"/>
      <feComposite operator="in" in2="blur"/>
      <feComposite in="SourceGraphic"/>
    </filter>
    <filter id="Union_28-2" x="346.373" y="355.013" width="283.359" height="309.73" filterUnits="userSpaceOnUse">
      <feOffset dy="3" input="SourceAlpha"/>
      <feGaussianBlur stdDeviation="3" result="blur-2"/>
      <feFlood flood-opacity="0.161"/>
      <feComposite operator="in" in2="blur-2"/>
      <feComposite in="SourceGraphic"/>
    </filter>
    <filter id="Union_28-3" x="48.373" y="355.013" width="283.359" height="309.73" filterUnits="userSpaceOnUse">
      <feOffset dy="3" input="SourceAlpha"/>
      <feGaussianBlur stdDeviation="3" result="blur-3"/>
      <feFlood flood-opacity="0.161"/>
      <feComposite operator="in" in2="blur-3"/>
      <feComposite in="SourceGraphic"/>
    </filter>
    <filter id="Union_28-4" x="644.373" y="43.013" width="283.359" height="309.73" filterUnits="userSpaceOnUse">
      <feOffset dy="3" input="SourceAlpha"/>
      <feGaussianBlur stdDeviation="3" result="blur-4"/>
      <feFlood flood-opacity="0.161"/>
      <feComposite operator="in" in2="blur-4"/>
      <feComposite in="SourceGraphic"/>
    </filter>
    <filter id="Union_28-5" x="346.373" y="43.013" width="283.359" height="309.73" filterUnits="userSpaceOnUse">
      <feOffset dy="3" input="SourceAlpha"/>
      <feGaussianBlur stdDeviation="3" result="blur-5"/>
      <feFlood flood-opacity="0.161"/>
      <feComposite operator="in" in2="blur-5"/>
      <feComposite in="SourceGraphic"/>
    </filter>
    <filter id="Union_28-6" x="48.373" y="43.013" width="283.359" height="309.73" filterUnits="userSpaceOnUse">
      <feOffset dy="3" input="SourceAlpha"/>
      <feGaussianBlur stdDeviation="3" result="blur-6"/>
      <feFlood flood-opacity="0.161"/>
      <feComposite operator="in" in2="blur-6"/>
      <feComposite in="SourceGraphic"/>
    </filter>
    <clipPath id="clip-BuddyBot_Multi_Colours">
      <rect width="977" height="701"/>
    </clipPath>
  </defs>
  <g id="BuddyBot_Multi_Colours" data-name="BuddyBot Multi Colours" clip-path="url(#clip-BuddyBot_Multi_Colours)">
    <g id="Group_7" data-name="Group 7">
      <g id="Group_1" data-name="Group 1" transform="translate(91 25)">
        <g transform="matrix(1, 0, 0, 1, -91, -25)" filter="url(#Union_28)">
          <path id="Union_28-7" data-name="Union 28" d="M-1658.79,291.73a40,40,0,0,1-40-40V208.889a20.144,20.144,0,0,1-5.033-5.254,38.728,38.728,0,0,1-4.321-8.627,61.5,61.5,0,0,1-2.838-11.026,78.347,78.347,0,0,1-1.02-12.74,78.347,78.347,0,0,1,1.02-12.74,61.53,61.53,0,0,1,2.838-11.027,38.7,38.7,0,0,1,4.321-8.626,20.148,20.148,0,0,1,5.033-5.255V89.486a40,40,0,0,1,40-40h69.279V29.814a17.191,17.191,0,0,1-5.761-12.952C-1595.271,7.55-1588.1,0-1579.253,0s16.019,7.55,16.019,16.862a17.226,17.226,0,0,1-5.257,12.49V49.486h68.764a40,40,0,0,1,40,40v43.252a20.309,20.309,0,0,1,4.907,5.167,38.706,38.706,0,0,1,4.321,8.626,61.539,61.539,0,0,1,2.838,11.026,78.354,78.354,0,0,1,1.021,12.74,78.365,78.365,0,0,1-1.021,12.741,61.5,61.5,0,0,1-2.838,11.026,38.734,38.734,0,0,1-4.321,8.627,20.34,20.34,0,0,1-4.907,5.167V251.73a40,40,0,0,1-40,40Z" transform="translate(2365.37 361.01)" fill="#159957"/>
        </g>
        <rect id="Rectangle_37" data-name="Rectangle 37" width="190" height="186" rx="26" transform="translate(602 412)" fill="#86deb2"/>
        <circle id="Ellipse_40" data-name="Ellipse 40" cx="28.5" cy="28.5" r="28.5" transform="translate(715 453)" fill="#22ce78"/>
        <circle id="Ellipse_41" data-name="Ellipse 41" cx="28.5" cy="28.5" r="28.5" transform="translate(623 453)" fill="#22ce78"/>
        <path id="Subtraction_20" data-name="Subtraction 20" d="M50.177,36.5A53.009,53.009,0,0,1,33.326,33.77a52.527,52.527,0,0,1-14.585-7.591A52.425,52.425,0,0,1,7.33,14.624,51.445,51.445,0,0,1,0,0H100.354a51.444,51.444,0,0,1-7.33,14.624A52.424,52.424,0,0,1,81.613,26.179,52.526,52.526,0,0,1,67.029,33.77,53.006,53.006,0,0,1,50.177,36.5Z" transform="translate(646.78 534.588)" fill="#22ce78"/>
      </g>
    </g>
    <g id="Group_2" data-name="Group 2" transform="translate(-207 25)">
      <g transform="matrix(1, 0, 0, 1, 207, -25)" filter="url(#Union_28-2)">
        <path id="Union_28-8" data-name="Union 28" d="M-1658.79,291.73a40,40,0,0,1-40-40V208.889a20.144,20.144,0,0,1-5.033-5.254,38.728,38.728,0,0,1-4.321-8.627,61.5,61.5,0,0,1-2.838-11.026,78.347,78.347,0,0,1-1.02-12.74,78.347,78.347,0,0,1,1.02-12.74,61.53,61.53,0,0,1,2.838-11.027,38.7,38.7,0,0,1,4.321-8.626,20.148,20.148,0,0,1,5.033-5.255V89.486a40,40,0,0,1,40-40h69.279V29.814a17.191,17.191,0,0,1-5.761-12.952C-1595.271,7.55-1588.1,0-1579.253,0s16.019,7.55,16.019,16.862a17.226,17.226,0,0,1-5.257,12.49V49.486h68.764a40,40,0,0,1,40,40v43.252a20.309,20.309,0,0,1,4.907,5.167,38.706,38.706,0,0,1,4.321,8.626,61.539,61.539,0,0,1,2.838,11.026,78.354,78.354,0,0,1,1.021,12.74,78.365,78.365,0,0,1-1.021,12.741,61.5,61.5,0,0,1-2.838,11.026,38.734,38.734,0,0,1-4.321,8.627,20.34,20.34,0,0,1-4.907,5.167V251.73a40,40,0,0,1-40,40Z" transform="translate(2067.37 361.01)" fill="#155799"/>
      </g>
      <path id="Path_1" data-name="Path 1" d="M26,0H164a26,26,0,0,1,26,26V160a26,26,0,0,1-26,26H26A26,26,0,0,1,0,160V26A26,26,0,0,1,26,0Z" transform="translate(602 412)" fill="#3793ee"/>
      <circle id="Ellipse_40-2" data-name="Ellipse 40" cx="28.5" cy="28.5" r="28.5" transform="translate(715 453)" fill="#1c78d4"/>
      <circle id="Ellipse_41-2" data-name="Ellipse 41" cx="28.5" cy="28.5" r="28.5" transform="translate(623 453)" fill="#1c78d4"/>
      <path id="Subtraction_20-2" data-name="Subtraction 20" d="M50.177,36.5A53.009,53.009,0,0,1,33.326,33.77a52.527,52.527,0,0,1-14.585-7.591A52.425,52.425,0,0,1,7.33,14.624,51.445,51.445,0,0,1,0,0H100.354a51.444,51.444,0,0,1-7.33,14.624A52.424,52.424,0,0,1,81.613,26.179,52.526,52.526,0,0,1,67.029,33.77,53.006,53.006,0,0,1,50.177,36.5Z" transform="translate(646.78 534.588)" fill="#1c78d4"/>
    </g>
    <g id="Group_3" data-name="Group 3" transform="translate(-505 25)">
      <g transform="matrix(1, 0, 0, 1, 505, -25)" filter="url(#Union_28-3)">
        <path id="Union_28-9" data-name="Union 28" d="M-1658.79,291.73a40,40,0,0,1-40-40V208.889a20.144,20.144,0,0,1-5.033-5.254,38.728,38.728,0,0,1-4.321-8.627,61.5,61.5,0,0,1-2.838-11.026,78.347,78.347,0,0,1-1.02-12.74,78.347,78.347,0,0,1,1.02-12.74,61.53,61.53,0,0,1,2.838-11.027,38.7,38.7,0,0,1,4.321-8.626,20.148,20.148,0,0,1,5.033-5.255V89.486a40,40,0,0,1,40-40h69.279V29.814a17.191,17.191,0,0,1-5.761-12.952C-1595.271,7.55-1588.1,0-1579.253,0s16.019,7.55,16.019,16.862a17.226,17.226,0,0,1-5.257,12.49V49.486h68.764a40,40,0,0,1,40,40v43.252a20.309,20.309,0,0,1,4.907,5.167,38.706,38.706,0,0,1,4.321,8.626,61.539,61.539,0,0,1,2.838,11.026,78.354,78.354,0,0,1,1.021,12.74,78.365,78.365,0,0,1-1.021,12.741,61.5,61.5,0,0,1-2.838,11.026,38.734,38.734,0,0,1-4.321,8.627,20.34,20.34,0,0,1-4.907,5.167V251.73a40,40,0,0,1-40,40Z" transform="translate(1769.37 361.01)" fill="#2e366f"/>
      </g>
      <path id="Path_1-2" data-name="Path 1" d="M26,0H164a26,26,0,0,1,26,26V160a26,26,0,0,1-26,26H26A26,26,0,0,1,0,160V26A26,26,0,0,1,26,0Z" transform="translate(602 412)" fill="#7f8be4"/>
      <circle id="Ellipse_40-3" data-name="Ellipse 40" cx="28.5" cy="28.5" r="28.5" transform="translate(715 453)" fill="#4b57ae"/>
      <circle id="Ellipse_41-3" data-name="Ellipse 41" cx="28.5" cy="28.5" r="28.5" transform="translate(623 453)" fill="#4b57ae"/>
      <path id="Subtraction_20-3" data-name="Subtraction 20" d="M50.177,36.5A53.009,53.009,0,0,1,33.326,33.77a52.527,52.527,0,0,1-14.585-7.591A52.425,52.425,0,0,1,7.33,14.624,51.445,51.445,0,0,1,0,0H100.354a51.444,51.444,0,0,1-7.33,14.624A52.424,52.424,0,0,1,81.613,26.179,52.526,52.526,0,0,1,67.029,33.77,53.006,53.006,0,0,1,50.177,36.5Z" transform="translate(646.78 534.588)" fill="#4b57ae"/>
    </g>
    <g id="Group_4" data-name="Group 4" transform="translate(91 -287)">
      <g transform="matrix(1, 0, 0, 1, -91, 287)" filter="url(#Union_28-4)">
        <path id="Union_28-10" data-name="Union 28" d="M-1658.79,291.73a40,40,0,0,1-40-40V208.889a20.144,20.144,0,0,1-5.033-5.254,38.728,38.728,0,0,1-4.321-8.627,61.5,61.5,0,0,1-2.838-11.026,78.347,78.347,0,0,1-1.02-12.74,78.347,78.347,0,0,1,1.02-12.74,61.53,61.53,0,0,1,2.838-11.027,38.7,38.7,0,0,1,4.321-8.626,20.148,20.148,0,0,1,5.033-5.255V89.486a40,40,0,0,1,40-40h69.279V29.814a17.191,17.191,0,0,1-5.761-12.952C-1595.271,7.55-1588.1,0-1579.253,0s16.019,7.55,16.019,16.862a17.226,17.226,0,0,1-5.257,12.49V49.486h68.764a40,40,0,0,1,40,40v43.252a20.309,20.309,0,0,1,4.907,5.167,38.706,38.706,0,0,1,4.321,8.626,61.539,61.539,0,0,1,2.838,11.026,78.354,78.354,0,0,1,1.021,12.74,78.365,78.365,0,0,1-1.021,12.741,61.5,61.5,0,0,1-2.838,11.026,38.734,38.734,0,0,1-4.321,8.627,20.34,20.34,0,0,1-4.907,5.167V251.73a40,40,0,0,1-40,40Z" transform="translate(2365.37 49.01)" fill="#871599"/>
      </g>
      <path id="Path_2" data-name="Path 2" d="M26,0H164a26,26,0,0,1,26,26V160a26,26,0,0,1-26,26H26A26,26,0,0,1,0,160V26A26,26,0,0,1,26,0Z" transform="translate(602 412)" fill="#d671e6"/>
      <circle id="Ellipse_40-4" data-name="Ellipse 40" cx="28.5" cy="28.5" r="28.5" transform="translate(715 453)" fill="#ae1bc5"/>
      <circle id="Ellipse_41-4" data-name="Ellipse 41" cx="28.5" cy="28.5" r="28.5" transform="translate(623 453)" fill="#ae1bc5"/>
      <path id="Subtraction_20-4" data-name="Subtraction 20" d="M50.177,36.5A53.009,53.009,0,0,1,33.326,33.77a52.527,52.527,0,0,1-14.585-7.591A52.425,52.425,0,0,1,7.33,14.624,51.445,51.445,0,0,1,0,0H100.354a51.444,51.444,0,0,1-7.33,14.624A52.424,52.424,0,0,1,81.613,26.179,52.526,52.526,0,0,1,67.029,33.77,53.006,53.006,0,0,1,50.177,36.5Z" transform="translate(646.78 534.588)" fill="#ae1bc5"/>
    </g>
    <g id="Group_5" data-name="Group 5" transform="translate(-207 -287)">
      <g transform="matrix(1, 0, 0, 1, 207, 287)" filter="url(#Union_28-5)">
        <path id="Union_28-11" data-name="Union 28" d="M-1658.79,291.73a40,40,0,0,1-40-40V208.889a20.144,20.144,0,0,1-5.033-5.254,38.728,38.728,0,0,1-4.321-8.627,61.5,61.5,0,0,1-2.838-11.026,78.347,78.347,0,0,1-1.02-12.74,78.347,78.347,0,0,1,1.02-12.74,61.53,61.53,0,0,1,2.838-11.027,38.7,38.7,0,0,1,4.321-8.626,20.148,20.148,0,0,1,5.033-5.255V89.486a40,40,0,0,1,40-40h69.279V29.814a17.191,17.191,0,0,1-5.761-12.952C-1595.271,7.55-1588.1,0-1579.253,0s16.019,7.55,16.019,16.862a17.226,17.226,0,0,1-5.257,12.49V49.486h68.764a40,40,0,0,1,40,40v43.252a20.309,20.309,0,0,1,4.907,5.167,38.706,38.706,0,0,1,4.321,8.626,61.539,61.539,0,0,1,2.838,11.026,78.354,78.354,0,0,1,1.021,12.74,78.365,78.365,0,0,1-1.021,12.741,61.5,61.5,0,0,1-2.838,11.026,38.734,38.734,0,0,1-4.321,8.627,20.34,20.34,0,0,1-4.907,5.167V251.73a40,40,0,0,1-40,40Z" transform="translate(2067.37 49.01)" fill="#d0e511"/>
      </g>
      <path id="Path_1-3" data-name="Path 1" d="M26,0H164a26,26,0,0,1,26,26V160a26,26,0,0,1-26,26H26A26,26,0,0,1,0,160V26A26,26,0,0,1,26,0Z" transform="translate(602 412)" fill="#f3f385"/>
      <circle id="Ellipse_40-5" data-name="Ellipse 40" cx="28.5" cy="28.5" r="28.5" transform="translate(715 453)" fill="#dbcf24"/>
      <circle id="Ellipse_41-5" data-name="Ellipse 41" cx="28.5" cy="28.5" r="28.5" transform="translate(623 453)" fill="#dbcf24"/>
      <path id="Subtraction_20-5" data-name="Subtraction 20" d="M50.177,36.5A53.009,53.009,0,0,1,33.326,33.77a52.527,52.527,0,0,1-14.585-7.591A52.425,52.425,0,0,1,7.33,14.624,51.445,51.445,0,0,1,0,0H100.354a51.444,51.444,0,0,1-7.33,14.624A52.424,52.424,0,0,1,81.613,26.179,52.526,52.526,0,0,1,67.029,33.77,53.006,53.006,0,0,1,50.177,36.5Z" transform="translate(646.78 534.588)" fill="#dbcf24"/>
    </g>
    <g id="Group_6" data-name="Group 6" transform="translate(-505 -287)">
      <g transform="matrix(1, 0, 0, 1, 505, 287)" filter="url(#Union_28-6)">
        <path id="Union_28-12" data-name="Union 28" d="M-1658.79,291.73a40,40,0,0,1-40-40V208.889a20.144,20.144,0,0,1-5.033-5.254,38.728,38.728,0,0,1-4.321-8.627,61.5,61.5,0,0,1-2.838-11.026,78.347,78.347,0,0,1-1.02-12.74,78.347,78.347,0,0,1,1.02-12.74,61.53,61.53,0,0,1,2.838-11.027,38.7,38.7,0,0,1,4.321-8.626,20.148,20.148,0,0,1,5.033-5.255V89.486a40,40,0,0,1,40-40h69.279V29.814a17.191,17.191,0,0,1-5.761-12.952C-1595.271,7.55-1588.1,0-1579.253,0s16.019,7.55,16.019,16.862a17.226,17.226,0,0,1-5.257,12.49V49.486h68.764a40,40,0,0,1,40,40v43.252a20.309,20.309,0,0,1,4.907,5.167,38.706,38.706,0,0,1,4.321,8.626,61.539,61.539,0,0,1,2.838,11.026,78.354,78.354,0,0,1,1.021,12.74,78.365,78.365,0,0,1-1.021,12.741,61.5,61.5,0,0,1-2.838,11.026,38.734,38.734,0,0,1-4.321,8.627,20.34,20.34,0,0,1-4.907,5.167V251.73a40,40,0,0,1-40,40Z" transform="translate(1769.37 49.01)" fill="#d23e1f"/>
      </g>
      <path id="Path_1-4" data-name="Path 1" d="M26,0H164a26,26,0,0,1,26,26V160a26,26,0,0,1-26,26H26A26,26,0,0,1,0,160V26A26,26,0,0,1,26,0Z" transform="translate(602 412)" fill="#fbaeae"/>
      <circle id="Ellipse_40-6" data-name="Ellipse 40" cx="28.5" cy="28.5" r="28.5" transform="translate(715 453)" fill="#e14e4e"/>
      <circle id="Ellipse_41-6" data-name="Ellipse 41" cx="28.5" cy="28.5" r="28.5" transform="translate(623 453)" fill="#e14e4e"/>
      <path id="Subtraction_20-6" data-name="Subtraction 20" d="M50.177,36.5A53.009,53.009,0,0,1,33.326,33.77a52.527,52.527,0,0,1-14.585-7.591A52.425,52.425,0,0,1,7.33,14.624,51.445,51.445,0,0,1,0,0H100.354a51.444,51.444,0,0,1-7.33,14.624A52.424,52.424,0,0,1,81.613,26.179,52.526,52.526,0,0,1,67.029,33.77,53.006,53.006,0,0,1,50.177,36.5Z" transform="translate(646.78 534.588)" fill="#e14e4e"/>
    </g>
  </g>
</svg>
