<svg xmlns="http://www.w3.org/2000/svg" xmlns:xlink="http://www.w3.org/1999/xlink" width="337" height="309" viewBox="0 0 337 309">
  <defs>
    <linearGradient id="linear-gradient" x1="0.5" x2="0.5" y2="1" gradientUnits="objectBoundingBox">
      <stop offset="0" stop-color="#159957"/>
      <stop offset="1" stop-color="#155799"/>
    </linearGradient>
    <filter id="Union_31" x="26.373" y="3.013" width="283.359" height="309.73" filterUnits="userSpaceOnUse">
      <feOffset dy="3" input="SourceAlpha"/>
      <feGaussianBlur stdDeviation="3" result="blur"/>
      <feFlood flood-opacity="0.161"/>
      <feComposite operator="in" in2="blur"/>
      <feComposite in="SourceGraphic"/>
    </filter>
    <filter id="Path_10" x="107.032" y="185.497" width="122.929" height="46.996" filterUnits="userSpaceOnUse">
      <feOffset dy="3" input="SourceAlpha"/>
      <feGaussianBlur stdDeviation="3" result="blur-2"/>
      <feFlood flood-opacity="0.161"/>
      <feComposite operator="in" in2="blur-2"/>
      <feComposite in="SourceGraphic"/>
    </filter>
    <clipPath id="clip-BuddyBot_Sassy">
      <rect width="337" height="309"/>
    </clipPath>
  </defs>
  <g id="BuddyBot_Sassy" data-name="BuddyBot Sassy" clip-path="url(#clip-BuddyBot_Sassy)">
    <g transform="matrix(1, 0, 0, 1, 0, 0)" filter="url(#Union_31)">
      <path id="Union_31-2" data-name="Union 31" d="M-811.789-629.27a39.746,39.746,0,0,1-15.57-3.144,39.862,39.862,0,0,1-12.714-8.573,39.855,39.855,0,0,1-8.572-12.714,39.738,39.738,0,0,1-3.144-15.569v-42.841a20.171,20.171,0,0,1-5.033-5.254,38.726,38.726,0,0,1-4.321-8.627,61.54,61.54,0,0,1-2.838-11.026,78.323,78.323,0,0,1-1.02-12.74,78.315,78.315,0,0,1,1.02-12.74,61.568,61.568,0,0,1,2.838-11.027,38.7,38.7,0,0,1,4.321-8.627,20.149,20.149,0,0,1,5.033-5.255v-44.106a39.743,39.743,0,0,1,3.144-15.57,39.874,39.874,0,0,1,8.572-12.714,39.876,39.876,0,0,1,12.714-8.573,39.757,39.757,0,0,1,15.57-3.143h69.279v-19.672a17.2,17.2,0,0,1-5.761-12.952,17.207,17.207,0,0,1,4.692-11.923A15.521,15.521,0,0,1-732.253-921a15.523,15.523,0,0,1,11.327,4.939,17.211,17.211,0,0,1,4.692,11.923,17.477,17.477,0,0,1-1.417,6.944,16.8,16.8,0,0,1-3.839,5.546v20.134h68.764a39.761,39.761,0,0,1,15.57,3.143,39.876,39.876,0,0,1,12.714,8.573,39.873,39.873,0,0,1,8.572,12.714,39.743,39.743,0,0,1,3.144,15.57v43.252a20.321,20.321,0,0,1,4.907,5.167,38.738,38.738,0,0,1,4.321,8.627,61.56,61.56,0,0,1,2.838,11.026,78.389,78.389,0,0,1,1.021,12.74,78.408,78.408,0,0,1-1.021,12.741,61.539,61.539,0,0,1-2.838,11.026,38.768,38.768,0,0,1-4.321,8.627,20.369,20.369,0,0,1-4.907,5.167v43.87a39.738,39.738,0,0,1-3.144,15.569,39.854,39.854,0,0,1-8.572,12.714,39.862,39.862,0,0,1-12.714,8.573,39.746,39.746,0,0,1-15.57,3.144Zm-13.584-189.742v134a26.029,26.029,0,0,0,26,26h138a26.029,26.029,0,0,0,26-26v-134a26.029,26.029,0,0,0-26-26h-138A26.029,26.029,0,0,0-825.373-819.013Zm130.81,57.649a19.579,19.579,0,0,1-5.773-13.938v-.134h-17.19a6,6,0,0,1-6-6v-7.577a6,6,0,0,1,6-6h56.613v19.577h0c0,.038,0,.075,0,.112v.023a19.579,19.579,0,0,1-5.773,13.938,19.579,19.579,0,0,1-13.937,5.773A19.583,19.583,0,0,1-694.563-761.364Zm-78.846,0a19.583,19.583,0,0,1-5.773-13.938c0-.044,0-.089,0-.134h-17.19a6,6,0,0,1-6-6v-7.577a6,6,0,0,1,6-6h56.613v19.577h0v.134a19.582,19.582,0,0,1-5.773,13.938,19.581,19.581,0,0,1-13.938,5.773A19.583,19.583,0,0,1-773.41-761.364Z" transform="translate(900.37 930.01)" fill="url(#linear-gradient)"/>
    </g>
    <g transform="matrix(1, 0, 0, 1, 0, 0)" filter="url(#Path_10)">
      <path id="Path_10-2" data-name="Path 10" d="M936.782,1322.331S963.339,1307,986.051,1307s48.858,17.051,48.858,17.051" transform="translate(-817.5 -1109)" fill="none" stroke="#156c83" stroke-width="13"/>
    </g>
  </g>
</svg>
