<svg xmlns="http://www.w3.org/2000/svg" xmlns:xlink="http://www.w3.org/1999/xlink" width="337" height="309" viewBox="0 0 337 309">
  <defs>
    <linearGradient id="linear-gradient" x1="0.5" x2="0.5" y2="1" gradientUnits="objectBoundingBox">
      <stop offset="0" stop-color="#159957"/>
      <stop offset="1" stop-color="#155799"/>
    </linearGradient>
    <filter id="Union_29" x="26.373" y="3.013" width="283.359" height="309.73" filterUnits="userSpaceOnUse">
      <feOffset dy="3" input="SourceAlpha"/>
      <feGaussianBlur stdDeviation="3" result="blur"/>
      <feFlood flood-opacity="0.161"/>
      <feComposite operator="in" in2="blur"/>
      <feComposite in="SourceGraphic"/>
    </filter>
    <filter id="Union_29-2" x="26.373" y="3.013" width="283.359" height="309.73" filterUnits="userSpaceOnUse">
      <feOffset dy="3" input="SourceAlpha"/>
      <feGaussianBlur stdDeviation="3" result="blur-2"/>
      <feFlood flood-opacity="0.161"/>
      <feComposite operator="in" in2="blur-2"/>
      <feComposite in="SourceGraphic"/>
    </filter>
    <clipPath id="clip-BuddyBot_Friendly">
      <rect width="337" height="309"/>
    </clipPath>
  </defs>
  <g id="BuddyBot_Friendly" data-name="BuddyBot Friendly" clip-path="url(#clip-BuddyBot_Friendly)">
    <g id="Group_11" data-name="Group 11" transform="translate(-527 -327)">
      <g transform="matrix(1, 0, 0, 1, 527, 327)" filter="url(#Union_29)">
        <path id="Union_29-3" data-name="Union 29" d="M-359.789,267.729a39.761,39.761,0,0,1-15.57-3.143,39.876,39.876,0,0,1-12.714-8.573,39.874,39.874,0,0,1-8.572-12.714,39.743,39.743,0,0,1-3.144-15.57V184.889a20.157,20.157,0,0,1-5.033-5.254,38.727,38.727,0,0,1-4.321-8.627,61.5,61.5,0,0,1-2.838-11.026,78.319,78.319,0,0,1-1.02-12.74,78.327,78.327,0,0,1,1.02-12.74,61.569,61.569,0,0,1,2.838-11.027,38.738,38.738,0,0,1,4.321-8.626,20.178,20.178,0,0,1,5.033-5.255V65.486a39.738,39.738,0,0,1,3.144-15.569A39.854,39.854,0,0,1-388.074,37.2a39.861,39.861,0,0,1,12.714-8.573,39.746,39.746,0,0,1,15.57-3.144h69.279V5.814a17.2,17.2,0,0,1-5.761-12.952,17.213,17.213,0,0,1,4.692-11.923A15.521,15.521,0,0,1-280.253-24a15.523,15.523,0,0,1,11.327,4.939,17.209,17.209,0,0,1,4.692,11.923,17.481,17.481,0,0,1-1.418,6.945,16.8,16.8,0,0,1-3.839,5.545V25.486h68.764a39.743,39.743,0,0,1,15.57,3.144A39.862,39.862,0,0,1-172.443,37.2a39.856,39.856,0,0,1,8.572,12.714,39.753,39.753,0,0,1,3.143,15.569v43.252a20.338,20.338,0,0,1,4.907,5.167,38.7,38.7,0,0,1,4.321,8.627,61.578,61.578,0,0,1,2.838,11.026,78.306,78.306,0,0,1,1.021,12.74,78.3,78.3,0,0,1-1.021,12.741,61.5,61.5,0,0,1-2.838,11.026,38.688,38.688,0,0,1-4.321,8.627,20.338,20.338,0,0,1-4.907,5.167v43.87a39.758,39.758,0,0,1-3.143,15.57,39.891,39.891,0,0,1-8.572,12.714,39.877,39.877,0,0,1-12.714,8.573,39.761,39.761,0,0,1-15.57,3.143ZM-373.373,77.987v134a26.029,26.029,0,0,0,26,26h138a26.029,26.029,0,0,0,26-26v-134a26.029,26.029,0,0,0-26-26h-138A26.03,26.03,0,0,0-373.373,77.987Zm80.2,112.611a39.921,39.921,0,0,1-11.125-5.849,40.182,40.182,0,0,1-8.7-8.9,39.806,39.806,0,0,1-5.591-11.269h76.543a39.782,39.782,0,0,1-5.591,11.269,40.182,40.182,0,0,1-8.7,8.9,39.928,39.928,0,0,1-11.124,5.849,40.052,40.052,0,0,1-12.854,2.1A40.042,40.042,0,0,1-293.174,190.6Z" transform="translate(448.37 33.01)" fill="url(#linear-gradient)"/>
      </g>
    </g>
    <g id="Group_12" data-name="Group 12" transform="translate(-527 -327)">
      <g transform="matrix(1, 0, 0, 1, 527, 327)" filter="url(#Union_29-2)">
        <path id="Union_29-4" data-name="Union 29" d="M-200.727,267.73H-359.789a39.75,39.75,0,0,1-15.57-3.143,39.867,39.867,0,0,1-12.714-8.572,39.867,39.867,0,0,1-8.572-12.714,39.75,39.75,0,0,1-3.143-15.57V184.889a20.158,20.158,0,0,1-5.033-5.254,38.73,38.73,0,0,1-4.321-8.627,61.5,61.5,0,0,1-2.838-11.026,78.341,78.341,0,0,1-1.02-12.74,78.339,78.339,0,0,1,1.02-12.74,61.527,61.527,0,0,1,2.838-11.027,38.7,38.7,0,0,1,4.321-8.626,20.163,20.163,0,0,1,5.033-5.255V65.486a39.75,39.75,0,0,1,3.143-15.57A39.868,39.868,0,0,1-388.073,37.2a39.867,39.867,0,0,1,12.714-8.572,39.75,39.75,0,0,1,15.57-3.143h69.279V5.814a17.2,17.2,0,0,1-5.761-12.952,17.209,17.209,0,0,1,4.692-11.923A15.52,15.52,0,0,1-280.253-24a15.522,15.522,0,0,1,11.327,4.939,17.209,17.209,0,0,1,4.692,11.923,17.48,17.48,0,0,1-1.417,6.945,16.794,16.794,0,0,1-3.839,5.545V25.486h68.764a39.75,39.75,0,0,1,15.57,3.143A39.868,39.868,0,0,1-172.443,37.2a39.868,39.868,0,0,1,8.572,12.714,39.75,39.75,0,0,1,3.143,15.57v43.252a20.325,20.325,0,0,1,4.907,5.167,38.7,38.7,0,0,1,4.321,8.626,61.538,61.538,0,0,1,2.838,11.026,78.354,78.354,0,0,1,1.021,12.74,78.359,78.359,0,0,1-1.021,12.741,61.5,61.5,0,0,1-2.838,11.026,38.733,38.733,0,0,1-4.321,8.627,20.358,20.358,0,0,1-4.907,5.167v43.87a39.75,39.75,0,0,1-3.143,15.57,39.867,39.867,0,0,1-8.572,12.714,39.867,39.867,0,0,1-12.714,8.572A39.751,39.751,0,0,1-200.727,267.73ZM-347.373,51.987a26.029,26.029,0,0,0-26,26v134a26.03,26.03,0,0,0,26,26h138a26.029,26.029,0,0,0,26-26v-134a26.029,26.029,0,0,0-26-26Z" transform="translate(448.37 33.01)" fill="url(#linear-gradient)"/>
      </g>
    </g>
    <path id="Path_7" data-name="Path 7" d="M974.412,1343.186s12.188-19.926,23.81-19.926,22.678,19.926,22.678,19.926" transform="translate(-869 -1179)" fill="none" stroke="#157778" stroke-width="10"/>
    <path id="Path_8" data-name="Path 8" d="M974.412,1343.186s12.188-19.926,23.81-19.926,22.678,19.926,22.678,19.926" transform="translate(-789 -1179)" fill="none" stroke="#157778" stroke-width="10"/>
  </g>
</svg>
